<mxfile host="app.diagrams.net" modified="2022-04-23T13:36:14.085Z" agent="5.0 (Macintosh; Intel Mac OS X 10_15_7) AppleWebKit/537.36 (KHTML, like Gecko) Chrome/100.0.4896.75 Safari/537.36" etag="CSF4ODeoXTh0H8iKO98R" version="17.4.2" type="github">
  <diagram id="xqrIzZdPpsmwQ_epqfl2" name="Page-1">
    <mxGraphModel dx="2013" dy="738" grid="1" gridSize="10" guides="1" tooltips="1" connect="1" arrows="1" fold="1" page="1" pageScale="1" pageWidth="827" pageHeight="1169" math="0" shadow="0">
      <root>
        <mxCell id="0" />
        <mxCell id="1" parent="0" />
        <mxCell id="g0JxfREbLSvy3Uvs3f1J-1" value="" style="rounded=0;whiteSpace=wrap;html=1;fillColor=#f9f7ed;strokeColor=#36393d;" vertex="1" parent="1">
          <mxGeometry x="-75" y="250" width="530" height="350" as="geometry" />
        </mxCell>
        <mxCell id="g0JxfREbLSvy3Uvs3f1J-2" value="" style="rounded=0;whiteSpace=wrap;html=1;fillColor=#f9f7ed;strokeColor=#36393d;" vertex="1" parent="1">
          <mxGeometry x="480" y="250" width="500" height="350" as="geometry" />
        </mxCell>
        <mxCell id="g0JxfREbLSvy3Uvs3f1J-4" value="" style="rounded=0;whiteSpace=wrap;html=1;fillColor=#eeeeee;strokeColor=#36393d;" vertex="1" parent="1">
          <mxGeometry x="-40" y="305" width="120" height="240" as="geometry" />
        </mxCell>
        <mxCell id="g0JxfREbLSvy3Uvs3f1J-5" value="" style="rounded=0;whiteSpace=wrap;html=1;fillColor=#eeeeee;strokeColor=#36393d;" vertex="1" parent="1">
          <mxGeometry x="130" y="310" width="120" height="240" as="geometry" />
        </mxCell>
        <mxCell id="g0JxfREbLSvy3Uvs3f1J-6" value="" style="rounded=0;whiteSpace=wrap;html=1;fillColor=#eeeeee;strokeColor=#36393d;" vertex="1" parent="1">
          <mxGeometry x="300" y="310" width="120" height="240" as="geometry" />
        </mxCell>
        <mxCell id="g0JxfREbLSvy3Uvs3f1J-7" value="" style="rounded=0;whiteSpace=wrap;html=1;fillColor=#eeeeee;strokeColor=#36393d;" vertex="1" parent="1">
          <mxGeometry x="510" y="310" width="120" height="240" as="geometry" />
        </mxCell>
        <mxCell id="g0JxfREbLSvy3Uvs3f1J-8" value="" style="rounded=0;whiteSpace=wrap;html=1;fillColor=#eeeeee;strokeColor=#36393d;" vertex="1" parent="1">
          <mxGeometry x="670" y="310" width="120" height="240" as="geometry" />
        </mxCell>
        <mxCell id="g0JxfREbLSvy3Uvs3f1J-9" value="" style="rounded=0;whiteSpace=wrap;html=1;fillColor=#eeeeee;strokeColor=#36393d;" vertex="1" parent="1">
          <mxGeometry x="827" y="310" width="120" height="240" as="geometry" />
        </mxCell>
        <mxCell id="g0JxfREbLSvy3Uvs3f1J-10" value="LSN1" style="rounded=0;whiteSpace=wrap;html=1;fillColor=#d5e8d4;strokeColor=#82b366;" vertex="1" parent="1">
          <mxGeometry x="-15" y="320" width="70" height="20" as="geometry" />
        </mxCell>
        <mxCell id="g0JxfREbLSvy3Uvs3f1J-12" value="CPL3" style="rounded=0;whiteSpace=wrap;html=1;fillColor=#d5e8d4;strokeColor=#82b366;" vertex="1" parent="1">
          <mxGeometry x="-15" y="360" width="70" height="20" as="geometry" />
        </mxCell>
        <mxCell id="g0JxfREbLSvy3Uvs3f1J-13" value="LSN4" style="rounded=0;whiteSpace=wrap;html=1;fillColor=#0050ef;fontColor=#ffffff;strokeColor=#001DBC;" vertex="1" parent="1">
          <mxGeometry x="-15" y="380" width="70" height="20" as="geometry" />
        </mxCell>
        <mxCell id="g0JxfREbLSvy3Uvs3f1J-16" value="LSN7" style="rounded=0;whiteSpace=wrap;html=1;fillColor=#e3c800;fontColor=#000000;strokeColor=#B09500;" vertex="1" parent="1">
          <mxGeometry x="-15" y="440" width="70" height="20" as="geometry" />
        </mxCell>
        <mxCell id="g0JxfREbLSvy3Uvs3f1J-17" value="LSN1" style="rounded=0;whiteSpace=wrap;html=1;fillColor=#d5e8d4;strokeColor=#82b366;" vertex="1" parent="1">
          <mxGeometry x="155" y="320" width="70" height="20" as="geometry" />
        </mxCell>
        <mxCell id="g0JxfREbLSvy3Uvs3f1J-19" value="CPL3" style="rounded=0;whiteSpace=wrap;html=1;fillColor=#d5e8d4;strokeColor=#82b366;" vertex="1" parent="1">
          <mxGeometry x="155" y="360" width="70" height="20" as="geometry" />
        </mxCell>
        <mxCell id="g0JxfREbLSvy3Uvs3f1J-20" value="LSN4" style="rounded=0;whiteSpace=wrap;html=1;fillColor=#0050ef;fontColor=#ffffff;strokeColor=#001DBC;" vertex="1" parent="1">
          <mxGeometry x="155" y="380" width="70" height="20" as="geometry" />
        </mxCell>
        <mxCell id="g0JxfREbLSvy3Uvs3f1J-23" value="LSN7" style="rounded=0;whiteSpace=wrap;html=1;fillColor=#e3c800;fontColor=#000000;strokeColor=#B09500;" vertex="1" parent="1">
          <mxGeometry x="155" y="440" width="70" height="20" as="geometry" />
        </mxCell>
        <mxCell id="g0JxfREbLSvy3Uvs3f1J-24" value="LSN1" style="rounded=0;whiteSpace=wrap;html=1;fillColor=#d5e8d4;strokeColor=#82b366;" vertex="1" parent="1">
          <mxGeometry x="325" y="320" width="70" height="20" as="geometry" />
        </mxCell>
        <mxCell id="g0JxfREbLSvy3Uvs3f1J-26" value="CPL3" style="rounded=0;whiteSpace=wrap;html=1;fillColor=#d5e8d4;strokeColor=#82b366;" vertex="1" parent="1">
          <mxGeometry x="325" y="360" width="70" height="20" as="geometry" />
        </mxCell>
        <mxCell id="g0JxfREbLSvy3Uvs3f1J-27" value="LSN4" style="rounded=0;whiteSpace=wrap;html=1;fillColor=#0050ef;fontColor=#ffffff;strokeColor=#001DBC;" vertex="1" parent="1">
          <mxGeometry x="325" y="380" width="70" height="20" as="geometry" />
        </mxCell>
        <mxCell id="g0JxfREbLSvy3Uvs3f1J-30" value="LSN7" style="rounded=0;whiteSpace=wrap;html=1;fillColor=#e3c800;fontColor=#000000;strokeColor=#B09500;" vertex="1" parent="1">
          <mxGeometry x="325" y="440" width="70" height="20" as="geometry" />
        </mxCell>
        <mxCell id="g0JxfREbLSvy3Uvs3f1J-32" value="LSN2" style="rounded=0;whiteSpace=wrap;html=1;fillColor=#d5e8d4;strokeColor=#82b366;" vertex="1" parent="1">
          <mxGeometry x="535" y="340" width="70" height="20" as="geometry" />
        </mxCell>
        <mxCell id="g0JxfREbLSvy3Uvs3f1J-35" value="CPL5" style="rounded=0;whiteSpace=wrap;html=1;fillColor=#0050ef;fontColor=#ffffff;strokeColor=#001DBC;" vertex="1" parent="1">
          <mxGeometry x="535" y="400" width="70" height="20" as="geometry" />
        </mxCell>
        <mxCell id="g0JxfREbLSvy3Uvs3f1J-36" value="LSN6" style="rounded=0;whiteSpace=wrap;html=1;fillColor=#e3c800;fontColor=#000000;strokeColor=#B09500;" vertex="1" parent="1">
          <mxGeometry x="535" y="420" width="70" height="20" as="geometry" />
        </mxCell>
        <mxCell id="g0JxfREbLSvy3Uvs3f1J-39" value="LSN2" style="rounded=0;whiteSpace=wrap;html=1;fillColor=#d5e8d4;strokeColor=#82b366;" vertex="1" parent="1">
          <mxGeometry x="695" y="340" width="70" height="20" as="geometry" />
        </mxCell>
        <mxCell id="g0JxfREbLSvy3Uvs3f1J-42" value="CPL5" style="rounded=0;whiteSpace=wrap;html=1;fillColor=#0050ef;fontColor=#ffffff;strokeColor=#001DBC;" vertex="1" parent="1">
          <mxGeometry x="695" y="400" width="70" height="20" as="geometry" />
        </mxCell>
        <mxCell id="g0JxfREbLSvy3Uvs3f1J-43" value="LSN6" style="rounded=0;whiteSpace=wrap;html=1;fillColor=#e3c800;fontColor=#000000;strokeColor=#B09500;" vertex="1" parent="1">
          <mxGeometry x="695" y="420" width="70" height="20" as="geometry" />
        </mxCell>
        <mxCell id="g0JxfREbLSvy3Uvs3f1J-46" value="LSN2" style="rounded=0;whiteSpace=wrap;html=1;fillColor=#d5e8d4;strokeColor=#82b366;" vertex="1" parent="1">
          <mxGeometry x="852" y="340" width="70" height="20" as="geometry" />
        </mxCell>
        <mxCell id="g0JxfREbLSvy3Uvs3f1J-49" value="CPL5" style="rounded=0;whiteSpace=wrap;html=1;fillColor=#0050ef;fontColor=#ffffff;strokeColor=#001DBC;" vertex="1" parent="1">
          <mxGeometry x="852" y="400" width="70" height="20" as="geometry" />
        </mxCell>
        <mxCell id="g0JxfREbLSvy3Uvs3f1J-50" value="LSN6" style="rounded=0;whiteSpace=wrap;html=1;fillColor=#e3c800;fontColor=#000000;strokeColor=#B09500;" vertex="1" parent="1">
          <mxGeometry x="852" y="420" width="70" height="20" as="geometry" />
        </mxCell>
        <mxCell id="g0JxfREbLSvy3Uvs3f1J-52" value="LSN1" style="rounded=0;whiteSpace=wrap;html=1;fillColor=#d5e8d4;strokeColor=#82b366;" vertex="1" parent="1">
          <mxGeometry x="-40" y="200" width="70" height="20" as="geometry" />
        </mxCell>
        <mxCell id="g0JxfREbLSvy3Uvs3f1J-53" value="LSN2" style="rounded=0;whiteSpace=wrap;html=1;fillColor=#d5e8d4;strokeColor=#82b366;" vertex="1" parent="1">
          <mxGeometry x="30" y="200" width="70" height="20" as="geometry" />
        </mxCell>
        <mxCell id="g0JxfREbLSvy3Uvs3f1J-54" value="CPL3" style="rounded=0;whiteSpace=wrap;html=1;fillColor=#d5e8d4;strokeColor=#82b366;" vertex="1" parent="1">
          <mxGeometry x="100" y="200" width="70" height="20" as="geometry" />
        </mxCell>
        <mxCell id="g0JxfREbLSvy3Uvs3f1J-55" value="LSN4" style="rounded=0;whiteSpace=wrap;html=1;fillColor=#0050ef;fontColor=#ffffff;strokeColor=#001DBC;" vertex="1" parent="1">
          <mxGeometry x="170" y="200" width="70" height="20" as="geometry" />
        </mxCell>
        <mxCell id="g0JxfREbLSvy3Uvs3f1J-56" value="CPL5" style="rounded=0;whiteSpace=wrap;html=1;fillColor=#0050ef;fontColor=#ffffff;strokeColor=#001DBC;" vertex="1" parent="1">
          <mxGeometry x="240" y="200" width="70" height="20" as="geometry" />
        </mxCell>
        <mxCell id="g0JxfREbLSvy3Uvs3f1J-57" value="LSN6" style="rounded=0;whiteSpace=wrap;html=1;fillColor=#e3c800;fontColor=#000000;strokeColor=#B09500;" vertex="1" parent="1">
          <mxGeometry x="310" y="200" width="70" height="20" as="geometry" />
        </mxCell>
        <mxCell id="g0JxfREbLSvy3Uvs3f1J-58" value="LSN7" style="rounded=0;whiteSpace=wrap;html=1;fillColor=#e3c800;fontColor=#000000;strokeColor=#B09500;" vertex="1" parent="1">
          <mxGeometry x="380" y="200" width="70" height="20" as="geometry" />
        </mxCell>
        <mxCell id="g0JxfREbLSvy3Uvs3f1J-59" value="LSN8" style="rounded=0;whiteSpace=wrap;html=1;fillColor=#e3c800;fontColor=#000000;strokeColor=#B09500;" vertex="1" parent="1">
          <mxGeometry x="450" y="200" width="70" height="20" as="geometry" />
        </mxCell>
        <mxCell id="g0JxfREbLSvy3Uvs3f1J-60" value="Segment Group 1" style="text;html=1;strokeColor=none;fillColor=none;align=center;verticalAlign=middle;whiteSpace=wrap;rounded=0;" vertex="1" parent="1">
          <mxGeometry x="-75" y="250" width="115" height="30" as="geometry" />
        </mxCell>
        <mxCell id="g0JxfREbLSvy3Uvs3f1J-61" value="Segment Group 2" style="text;html=1;strokeColor=none;fillColor=none;align=center;verticalAlign=middle;whiteSpace=wrap;rounded=0;" vertex="1" parent="1">
          <mxGeometry x="480" y="250" width="115" height="30" as="geometry" />
        </mxCell>
        <mxCell id="g0JxfREbLSvy3Uvs3f1J-62" value="SGCL=7" style="text;html=1;strokeColor=none;fillColor=none;align=center;verticalAlign=middle;whiteSpace=wrap;rounded=0;" vertex="1" parent="1">
          <mxGeometry x="-40" y="555" width="115" height="30" as="geometry" />
        </mxCell>
        <mxCell id="g0JxfREbLSvy3Uvs3f1J-63" value="SGCL=7" style="text;html=1;strokeColor=none;fillColor=none;align=center;verticalAlign=middle;whiteSpace=wrap;rounded=0;" vertex="1" parent="1">
          <mxGeometry x="130" y="555" width="115" height="30" as="geometry" />
        </mxCell>
        <mxCell id="g0JxfREbLSvy3Uvs3f1J-64" value="SGCL=7" style="text;html=1;strokeColor=none;fillColor=none;align=center;verticalAlign=middle;whiteSpace=wrap;rounded=0;" vertex="1" parent="1">
          <mxGeometry x="302.5" y="555" width="115" height="30" as="geometry" />
        </mxCell>
        <mxCell id="g0JxfREbLSvy3Uvs3f1J-65" value="SGCL=8" style="text;html=1;strokeColor=none;fillColor=none;align=center;verticalAlign=middle;whiteSpace=wrap;rounded=0;" vertex="1" parent="1">
          <mxGeometry x="512.5" y="550" width="115" height="30" as="geometry" />
        </mxCell>
        <mxCell id="g0JxfREbLSvy3Uvs3f1J-66" value="SGCL=8" style="text;html=1;strokeColor=none;fillColor=none;align=center;verticalAlign=middle;whiteSpace=wrap;rounded=0;" vertex="1" parent="1">
          <mxGeometry x="670" y="550" width="115" height="30" as="geometry" />
        </mxCell>
        <mxCell id="g0JxfREbLSvy3Uvs3f1J-67" value="SGCL=8" style="text;html=1;strokeColor=none;fillColor=none;align=center;verticalAlign=middle;whiteSpace=wrap;rounded=0;" vertex="1" parent="1">
          <mxGeometry x="829.5" y="550" width="115" height="30" as="geometry" />
        </mxCell>
        <mxCell id="g0JxfREbLSvy3Uvs3f1J-68" value="VCL=8" style="text;html=1;strokeColor=none;fillColor=none;align=center;verticalAlign=middle;whiteSpace=wrap;rounded=0;" vertex="1" parent="1">
          <mxGeometry x="427.5" y="160" width="115" height="30" as="geometry" />
        </mxCell>
        <mxCell id="g0JxfREbLSvy3Uvs3f1J-69" value="VDL=5" style="text;html=1;strokeColor=none;fillColor=none;align=center;verticalAlign=middle;whiteSpace=wrap;rounded=0;" vertex="1" parent="1">
          <mxGeometry x="210" y="160" width="115" height="30" as="geometry" />
        </mxCell>
        <mxCell id="g0JxfREbLSvy3Uvs3f1J-71" value="LSN8" style="rounded=0;whiteSpace=wrap;html=1;fillColor=#e3c800;fontColor=#000000;strokeColor=#B09500;" vertex="1" parent="1">
          <mxGeometry x="535" y="460" width="70" height="20" as="geometry" />
        </mxCell>
        <mxCell id="g0JxfREbLSvy3Uvs3f1J-72" value="LSN8" style="rounded=0;whiteSpace=wrap;html=1;fillColor=#e3c800;fontColor=#000000;strokeColor=#B09500;" vertex="1" parent="1">
          <mxGeometry x="695" y="460" width="70" height="20" as="geometry" />
        </mxCell>
        <mxCell id="g0JxfREbLSvy3Uvs3f1J-73" value="LSN8" style="rounded=0;whiteSpace=wrap;html=1;fillColor=#e3c800;fontColor=#000000;strokeColor=#B09500;" vertex="1" parent="1">
          <mxGeometry x="852" y="460" width="70" height="20" as="geometry" />
        </mxCell>
        <mxCell id="g0JxfREbLSvy3Uvs3f1J-76" value="" style="shape=curlyBracket;whiteSpace=wrap;html=1;rounded=1;rotation=90;" vertex="1" parent="1">
          <mxGeometry x="55" y="55" width="20" height="210" as="geometry" />
        </mxCell>
        <mxCell id="g0JxfREbLSvy3Uvs3f1J-77" value="" style="shape=curlyBracket;whiteSpace=wrap;html=1;rounded=1;rotation=90;" vertex="1" parent="1">
          <mxGeometry x="232.5" y="87.5" width="20" height="145" as="geometry" />
        </mxCell>
        <mxCell id="g0JxfREbLSvy3Uvs3f1J-78" value="" style="shape=curlyBracket;whiteSpace=wrap;html=1;rounded=1;rotation=90;" vertex="1" parent="1">
          <mxGeometry x="444.54" y="22.97" width="20" height="274.07" as="geometry" />
        </mxCell>
        <mxCell id="g0JxfREbLSvy3Uvs3f1J-79" value="LSN8" style="rounded=0;whiteSpace=wrap;html=1;fillColor=#e3c800;fontColor=#000000;strokeColor=#B09500;" vertex="1" parent="1">
          <mxGeometry x="520" y="200" width="70" height="20" as="geometry" />
        </mxCell>
        <mxCell id="g0JxfREbLSvy3Uvs3f1J-80" value="MTR-x" style="text;html=1;strokeColor=none;fillColor=none;align=center;verticalAlign=middle;whiteSpace=wrap;rounded=0;" vertex="1" parent="1">
          <mxGeometry x="35" y="120" width="60" height="30" as="geometry" />
        </mxCell>
        <mxCell id="g0JxfREbLSvy3Uvs3f1J-81" value="MTR-y" style="text;html=1;strokeColor=none;fillColor=none;align=center;verticalAlign=middle;whiteSpace=wrap;rounded=0;" vertex="1" parent="1">
          <mxGeometry x="210" y="120" width="60" height="30" as="geometry" />
        </mxCell>
        <mxCell id="g0JxfREbLSvy3Uvs3f1J-82" value="MTR-z" style="text;html=1;strokeColor=none;fillColor=none;align=center;verticalAlign=middle;whiteSpace=wrap;rounded=0;" vertex="1" parent="1">
          <mxGeometry x="427.5" y="120" width="60" height="30" as="geometry" />
        </mxCell>
      </root>
    </mxGraphModel>
  </diagram>
</mxfile>
